<svg xmlns="http://www.w3.org/2000/svg" viewBox="0 0 280 64" width="280" height="64" role="img" aria-label="MCLite — CONFIG TOOL"><title>MCLite — CONFIG TOOL</title><rect x="0.75" y="0.75" width="278.5" height="62.5" rx="8" ry="8" fill="#0a0c10" stroke="#ffb547" stroke-width="1.5"/><g transform="translate(32,32) scale(0.154)" fill="#ffb547" stroke="#ffb547" stroke-linecap="round"><line x1="-90" y1="80" x2="-90" y2="-80" stroke-width="12"/><line x1="-90" y1="-80" x2="0" y2="10" stroke-width="12"/><line x1="0" y1="10" x2="90" y2="-80" stroke-width="12"/><line x1="90" y1="-80" x2="90" y2="80" stroke-width="12"/><circle cx="-90" cy="80" r="14"/><circle cx="-90" cy="-80" r="14"/><circle cx="0" cy="10" r="14"/><circle cx="90" cy="-80" r="14"/><circle cx="90" cy="80" r="14"/></g><path transform="translate(62,28.175)" d="M 1.01 -8.02 H 3.64 L 5.47 -3.73 L 7.3 -8.02 H 9.93 V -0 H 7.98 V -5.87 L 6.13 -1.54 H 4.82 L 2.97 -5.87 V -0 H 1.01 Z" fill="#ffb547"/><path transform="translate(73.386,28.175)" d="M 7.37 -0.44 Q 6.8 -0.15 6.18 0.01 Q 5.56 0.16 4.89 0.16 Q 2.89 0.16 1.72 -0.96 Q 0.55 -2.08 0.55 -4 Q 0.55 -5.92 1.72 -7.04 Q 2.89 -8.16 4.89 -8.16 Q 5.56 -8.16 6.18 -8.01 Q 6.8 -7.86 7.37 -7.57 V -5.91 Q 6.79 -6.3 6.24 -6.48 Q 5.68 -6.67 5.06 -6.67 Q 3.95 -6.67 3.32 -5.96 Q 2.69 -5.25 2.69 -4 Q 2.69 -2.76 3.32 -2.05 Q 3.95 -1.34 5.06 -1.34 Q 5.68 -1.34 6.24 -1.53 Q 6.79 -1.71 7.37 -2.1 Z" fill="#ffb547"/><path transform="translate(81.899,28.175)" d="M 1.01 -8.02 H 3.08 V -1.56 H 6.71 V -0 H 1.01 Z" fill="#ffb547"/><path transform="translate(89.348,28.175)" d="M 0.92 -6.02 H 2.85 V -0 H 0.92 Z M 0.92 -8.36 H 2.85 V -6.79 H 0.92 Z" fill="#ffb547"/><path transform="translate(93.559,28.175)" d="M 3.02 -7.72 V -6.02 H 5.01 V -4.64 H 3.02 V -2.09 Q 3.02 -1.67 3.19 -1.52 Q 3.36 -1.38 3.85 -1.38 H 4.84 V -0 H 3.19 Q 2.05 -0 1.58 -0.48 Q 1.1 -0.95 1.1 -2.09 V -4.64 H 0.15 V -6.02 H 1.1 V -7.72 Z" fill="#ffb547"/><path transform="translate(99.257,28.175)" d="M 6.93 -3.02 V -2.48 H 2.43 Q 2.5 -1.8 2.92 -1.46 Q 3.34 -1.12 4.09 -1.12 Q 4.7 -1.12 5.34 -1.3 Q 5.97 -1.48 6.64 -1.85 V -0.37 Q 5.96 -0.11 5.28 0.02 Q 4.6 0.16 3.92 0.16 Q 2.28 0.16 1.38 -0.67 Q 0.47 -1.5 0.47 -3 Q 0.47 -4.47 1.36 -5.32 Q 2.25 -6.16 3.81 -6.16 Q 5.23 -6.16 6.08 -5.31 Q 6.93 -4.45 6.93 -3.02 Z M 4.95 -3.66 Q 4.95 -4.21 4.63 -4.55 Q 4.31 -4.88 3.8 -4.88 Q 3.24 -4.88 2.89 -4.57 Q 2.54 -4.25 2.45 -3.66 Z" fill="#ffb547"/><path transform="translate(62,43.855)" d="M 10.72 -0.64 Q 9.89 -0.21 8.99 0.01 Q 8.09 0.23 7.12 0.23 Q 4.2 0.23 2.5 -1.4 Q 0.8 -3.03 0.8 -5.82 Q 0.8 -8.62 2.5 -10.25 Q 4.2 -11.88 7.12 -11.88 Q 8.09 -11.88 8.99 -11.66 Q 9.89 -11.44 10.72 -11.01 V -8.59 Q 9.88 -9.16 9.07 -9.43 Q 8.26 -9.7 7.36 -9.7 Q 5.75 -9.7 4.83 -8.66 Q 3.91 -7.63 3.91 -5.82 Q 3.91 -4.02 4.83 -2.98 Q 5.75 -1.95 7.36 -1.95 Q 8.26 -1.95 9.07 -2.22 Q 9.88 -2.48 10.72 -3.05 Z" fill="#ffb547"/><path transform="translate(74.542,43.855)" d="M 6.8 -9.7 Q 5.42 -9.7 4.66 -8.68 Q 3.91 -7.66 3.91 -5.82 Q 3.91 -3.98 4.66 -2.97 Q 5.42 -1.95 6.8 -1.95 Q 8.18 -1.95 8.94 -2.97 Q 9.7 -3.98 9.7 -5.82 Q 9.7 -7.66 8.94 -8.68 Q 8.18 -9.7 6.8 -9.7 Z M 6.8 -11.88 Q 9.61 -11.88 11.2 -10.27 Q 12.8 -8.66 12.8 -5.82 Q 12.8 -2.99 11.2 -1.38 Q 9.61 0.23 6.8 0.23 Q 3.99 0.23 2.39 -1.38 Q 0.8 -2.99 0.8 -5.82 Q 0.8 -8.66 2.39 -10.27 Q 3.99 -11.88 6.8 -11.88 Z" fill="#ffb547"/><path transform="translate(88.944,43.855)" d="M 1.47 -11.66 H 4.83 L 9.07 -3.66 V -11.66 H 11.92 V -0 H 8.56 L 4.32 -8 V -0 H 1.47 Z" fill="#ffb547"/><path transform="translate(103.134,43.855)" d="M 1.47 -11.66 H 9.59 V -9.39 H 4.48 V -7.22 H 9.28 V -4.95 H 4.48 V -0 H 1.47 Z" fill="#ffb547"/><path transform="translate(114.864,43.855)" d="M 1.47 -11.66 H 4.48 V -0 H 1.47 Z" fill="#ffb547"/><path transform="translate(121.617,43.855)" d="M 11.95 -0.87 Q 10.83 -0.32 9.62 -0.05 Q 8.41 0.23 7.12 0.23 Q 4.2 0.23 2.5 -1.4 Q 0.8 -3.03 0.8 -5.82 Q 0.8 -8.64 2.53 -10.26 Q 4.27 -11.88 7.28 -11.88 Q 8.45 -11.88 9.51 -11.66 Q 10.58 -11.44 11.52 -11.01 V -8.59 Q 10.55 -9.15 9.58 -9.42 Q 8.62 -9.7 7.65 -9.7 Q 5.85 -9.7 4.88 -8.69 Q 3.91 -7.69 3.91 -5.82 Q 3.91 -3.97 4.84 -2.96 Q 5.78 -1.95 7.51 -1.95 Q 7.98 -1.95 8.38 -2.01 Q 8.78 -2.07 9.1 -2.2 V -4.46 H 7.27 V -6.48 H 11.95 Z" fill="#ffb547"/><path transform="translate(141.92,43.855)" d="M 0.08 -11.66 H 10.83 V -9.39 H 6.96 V -0 H 3.95 V -9.39 H 0.08 Z" fill="#ffb547"/><path transform="translate(153.634,43.855)" d="M 6.8 -9.7 Q 5.42 -9.7 4.66 -8.68 Q 3.91 -7.66 3.91 -5.82 Q 3.91 -3.98 4.66 -2.97 Q 5.42 -1.95 6.8 -1.95 Q 8.18 -1.95 8.94 -2.97 Q 9.7 -3.98 9.7 -5.82 Q 9.7 -7.66 8.94 -8.68 Q 8.18 -9.7 6.8 -9.7 Z M 6.8 -11.88 Q 9.61 -11.88 11.2 -10.27 Q 12.8 -8.66 12.8 -5.82 Q 12.8 -2.99 11.2 -1.38 Q 9.61 0.23 6.8 0.23 Q 3.99 0.23 2.39 -1.38 Q 0.8 -2.99 0.8 -5.82 Q 0.8 -8.66 2.39 -10.27 Q 3.99 -11.88 6.8 -11.88 Z" fill="#ffb547"/><path transform="translate(168.036,43.855)" d="M 6.8 -9.7 Q 5.42 -9.7 4.66 -8.68 Q 3.91 -7.66 3.91 -5.82 Q 3.91 -3.98 4.66 -2.97 Q 5.42 -1.95 6.8 -1.95 Q 8.18 -1.95 8.94 -2.97 Q 9.7 -3.98 9.7 -5.82 Q 9.7 -7.66 8.94 -8.68 Q 8.18 -9.7 6.8 -9.7 Z M 6.8 -11.88 Q 9.61 -11.88 11.2 -10.27 Q 12.8 -8.66 12.8 -5.82 Q 12.8 -2.99 11.2 -1.38 Q 9.61 0.23 6.8 0.23 Q 3.99 0.23 2.39 -1.38 Q 0.8 -2.99 0.8 -5.82 Q 0.8 -8.66 2.39 -10.27 Q 3.99 -11.88 6.8 -11.88 Z" fill="#ffb547"/><path transform="translate(182.438,43.855)" d="M 1.47 -11.66 H 4.48 V -2.27 H 9.76 V -0 H 1.47 Z" fill="#ffb547"/><g transform="translate(240,21)"><path d="M 8.19 4.046 L 8.581 1.297 L 13.419 1.297 L 13.81 4.046 L 15.617 5.09 L 18.193 4.053 L 20.613 8.244 L 18.427 9.956 L 18.427 12.044 L 20.613 13.756 L 18.193 17.947 L 15.617 16.91 L 13.81 17.954 L 13.419 20.703 L 8.581 20.703 L 8.19 17.954 L 6.383 16.91 L 3.807 17.947 L 1.387 13.756 L 3.573 12.044 L 3.573 9.956 L 1.387 8.244 L 3.807 4.053 L 6.383 5.09 Z" fill="none" stroke="#ffb547" stroke-width="2" stroke-linecap="round" stroke-linejoin="round"/><circle cx="11" cy="11" r="3" fill="none" stroke="#ffb547" stroke-width="2" stroke-linecap="round"/></g></svg>
