<svg xmlns="http://www.w3.org/2000/svg" viewBox="0 0 280 64" width="280" height="64" role="img" aria-label="MCLite — VIEW ON GITHUB"><title>MCLite — VIEW ON GITHUB</title><rect x="0.75" y="0.75" width="278.5" height="62.5" rx="8" ry="8" fill="#0a0c10" stroke="#2a3242" stroke-width="1.5"/><g transform="translate(32,32) scale(0.154)" fill="#ffb547" stroke="#ffb547" stroke-linecap="round"><line x1="-90" y1="80" x2="-90" y2="-80" stroke-width="12"/><line x1="-90" y1="-80" x2="0" y2="10" stroke-width="12"/><line x1="0" y1="10" x2="90" y2="-80" stroke-width="12"/><line x1="90" y1="-80" x2="90" y2="80" stroke-width="12"/><circle cx="-90" cy="80" r="14"/><circle cx="-90" cy="-80" r="14"/><circle cx="0" cy="10" r="14"/><circle cx="90" cy="-80" r="14"/><circle cx="90" cy="80" r="14"/></g><path transform="translate(62,28.175)" d="M 1.01 -8.02 H 3.64 L 5.47 -3.73 L 7.3 -8.02 H 9.93 V -0 H 7.98 V -5.87 L 6.13 -1.54 H 4.82 L 2.97 -5.87 V -0 H 1.01 Z" fill="#7a8294"/><path transform="translate(73.386,28.175)" d="M 7.37 -0.44 Q 6.8 -0.15 6.18 0.01 Q 5.56 0.16 4.89 0.16 Q 2.89 0.16 1.72 -0.96 Q 0.55 -2.08 0.55 -4 Q 0.55 -5.92 1.72 -7.04 Q 2.89 -8.16 4.89 -8.16 Q 5.56 -8.16 6.18 -8.01 Q 6.8 -7.86 7.37 -7.57 V -5.91 Q 6.79 -6.3 6.24 -6.48 Q 5.68 -6.67 5.06 -6.67 Q 3.95 -6.67 3.32 -5.96 Q 2.69 -5.25 2.69 -4 Q 2.69 -2.76 3.32 -2.05 Q 3.95 -1.34 5.06 -1.34 Q 5.68 -1.34 6.24 -1.53 Q 6.79 -1.71 7.37 -2.1 Z" fill="#7a8294"/><path transform="translate(81.899,28.175)" d="M 1.01 -8.02 H 3.08 V -1.56 H 6.71 V -0 H 1.01 Z" fill="#7a8294"/><path transform="translate(89.348,28.175)" d="M 0.92 -6.02 H 2.85 V -0 H 0.92 Z M 0.92 -8.36 H 2.85 V -6.79 H 0.92 Z" fill="#7a8294"/><path transform="translate(93.559,28.175)" d="M 3.02 -7.72 V -6.02 H 5.01 V -4.64 H 3.02 V -2.09 Q 3.02 -1.67 3.19 -1.52 Q 3.36 -1.38 3.85 -1.38 H 4.84 V -0 H 3.19 Q 2.05 -0 1.58 -0.48 Q 1.1 -0.95 1.1 -2.09 V -4.64 H 0.15 V -6.02 H 1.1 V -7.72 Z" fill="#7a8294"/><path transform="translate(99.257,28.175)" d="M 6.93 -3.02 V -2.48 H 2.43 Q 2.5 -1.8 2.92 -1.46 Q 3.34 -1.12 4.09 -1.12 Q 4.7 -1.12 5.34 -1.3 Q 5.97 -1.48 6.64 -1.85 V -0.37 Q 5.96 -0.11 5.28 0.02 Q 4.6 0.16 3.92 0.16 Q 2.28 0.16 1.38 -0.67 Q 0.47 -1.5 0.47 -3 Q 0.47 -4.47 1.36 -5.32 Q 2.25 -6.16 3.81 -6.16 Q 5.23 -6.16 6.08 -5.31 Q 6.93 -4.45 6.93 -3.02 Z M 4.95 -3.66 Q 4.95 -4.21 4.63 -4.55 Q 4.31 -4.88 3.8 -4.88 Q 3.24 -4.88 2.89 -4.57 Q 2.54 -4.25 2.45 -3.66 Z" fill="#7a8294"/><path transform="translate(62,43.855)" d="M 0.08 -11.66 H 3.1 L 6.2 -3.05 L 9.28 -11.66 H 12.3 L 7.98 -0 H 4.4 Z" fill="#e6e9ef"/><path transform="translate(75.183,43.855)" d="M 1.47 -11.66 H 4.48 V -0 H 1.47 Z" fill="#e6e9ef"/><path transform="translate(81.936,43.855)" d="M 1.47 -11.66 H 9.59 V -9.39 H 4.48 V -7.22 H 9.28 V -4.95 H 4.48 V -2.27 H 9.76 V -0 H 1.47 Z" fill="#e6e9ef"/><path transform="translate(93.666,43.855)" d="M 0.48 -11.66 H 3.36 L 5.38 -3.19 L 7.38 -11.66 H 10.27 L 12.27 -3.19 L 14.29 -11.66 H 17.15 L 14.4 -0 H 10.93 L 8.81 -8.87 L 6.72 -0 H 3.25 Z" fill="#e6e9ef"/><path transform="translate(118.484,43.855)" d="M 6.8 -9.7 Q 5.42 -9.7 4.66 -8.68 Q 3.91 -7.66 3.91 -5.82 Q 3.91 -3.98 4.66 -2.97 Q 5.42 -1.95 6.8 -1.95 Q 8.18 -1.95 8.94 -2.97 Q 9.7 -3.98 9.7 -5.82 Q 9.7 -7.66 8.94 -8.68 Q 8.18 -9.7 6.8 -9.7 Z M 6.8 -11.88 Q 9.61 -11.88 11.2 -10.27 Q 12.8 -8.66 12.8 -5.82 Q 12.8 -2.99 11.2 -1.38 Q 9.61 0.23 6.8 0.23 Q 3.99 0.23 2.39 -1.38 Q 0.8 -2.99 0.8 -5.82 Q 0.8 -8.66 2.39 -10.27 Q 3.99 -11.88 6.8 -11.88 Z" fill="#e6e9ef"/><path transform="translate(132.886,43.855)" d="M 1.47 -11.66 H 4.83 L 9.07 -3.66 V -11.66 H 11.92 V -0 H 8.56 L 4.32 -8 V -0 H 1.47 Z" fill="#e6e9ef"/><path transform="translate(153.447,43.855)" d="M 11.95 -0.87 Q 10.83 -0.32 9.62 -0.05 Q 8.41 0.23 7.12 0.23 Q 4.2 0.23 2.5 -1.4 Q 0.8 -3.03 0.8 -5.82 Q 0.8 -8.64 2.53 -10.26 Q 4.27 -11.88 7.28 -11.88 Q 8.45 -11.88 9.51 -11.66 Q 10.58 -11.44 11.52 -11.01 V -8.59 Q 10.55 -9.15 9.58 -9.42 Q 8.62 -9.7 7.65 -9.7 Q 5.85 -9.7 4.88 -8.69 Q 3.91 -7.69 3.91 -5.82 Q 3.91 -3.97 4.84 -2.96 Q 5.78 -1.95 7.51 -1.95 Q 7.98 -1.95 8.38 -2.01 Q 8.78 -2.07 9.1 -2.2 V -4.46 H 7.27 V -6.48 H 11.95 Z" fill="#e6e9ef"/><path transform="translate(167.38,43.855)" d="M 1.47 -11.66 H 4.48 V -0 H 1.47 Z" fill="#e6e9ef"/><path transform="translate(174.133,43.855)" d="M 0.08 -11.66 H 10.83 V -9.39 H 6.96 V -0 H 3.95 V -9.39 H 0.08 Z" fill="#e6e9ef"/><path transform="translate(185.847,43.855)" d="M 1.47 -11.66 H 4.48 V -7.22 H 8.91 V -11.66 H 11.92 V -0 H 8.91 V -4.95 H 4.48 V -0 H 1.47 Z" fill="#e6e9ef"/><path transform="translate(200.037,43.855)" d="M 1.47 -11.66 H 4.48 V -4.67 Q 4.48 -3.23 4.95 -2.61 Q 5.42 -1.98 6.49 -1.98 Q 7.57 -1.98 8.04 -2.61 Q 8.52 -3.23 8.52 -4.67 V -11.66 H 11.52 V -4.67 Q 11.52 -2.2 10.28 -0.98 Q 9.04 0.23 6.49 0.23 Q 3.95 0.23 2.71 -0.98 Q 1.47 -2.2 1.47 -4.67 Z" fill="#e6e9ef"/><path transform="translate(213.83,43.855)" d="M 6.14 -7.15 Q 6.85 -7.15 7.22 -7.46 Q 7.59 -7.77 7.59 -8.38 Q 7.59 -8.98 7.22 -9.3 Q 6.85 -9.62 6.14 -9.62 H 4.48 V -7.15 Z M 6.24 -2.05 Q 7.15 -2.05 7.61 -2.43 Q 8.06 -2.81 8.06 -3.59 Q 8.06 -4.34 7.61 -4.72 Q 7.16 -5.1 6.24 -5.1 H 4.48 V -2.05 Z M 9.04 -6.24 Q 10.01 -5.96 10.54 -5.2 Q 11.07 -4.45 11.07 -3.34 Q 11.07 -1.66 9.93 -0.83 Q 8.79 -0 6.46 -0 H 1.47 V -11.66 H 5.98 Q 8.41 -11.66 9.5 -10.93 Q 10.59 -10.2 10.59 -8.58 Q 10.59 -7.73 10.2 -7.13 Q 9.8 -6.53 9.04 -6.24 Z" fill="#e6e9ef"/><g transform="translate(240,21)"><path d="M 3 9 L 3 19 L 13 19 L 13 13" fill="none" stroke="#e6e9ef" stroke-width="2" stroke-linecap="round" stroke-linejoin="round"/><path d="M 9 13 L 19 3" fill="none" stroke="#e6e9ef" stroke-width="2" stroke-linecap="round" stroke-linejoin="round"/><path d="M 13 3 L 19 3 L 19 9" fill="none" stroke="#e6e9ef" stroke-width="2" stroke-linecap="round" stroke-linejoin="round"/></g></svg>
