<svg xmlns="http://www.w3.org/2000/svg" viewBox="0 0 280 64" width="280" height="64" role="img" aria-label="MCLite — GROUP PRESET"><title>MCLite — GROUP PRESET</title><rect x="0.75" y="0.75" width="278.5" height="62.5" rx="8" ry="8" fill="#0a0c10" stroke="#ffb547" stroke-width="1.5"/><g transform="translate(32,32) scale(0.154)" fill="#ffb547" stroke="#ffb547" stroke-linecap="round"><line x1="-90" y1="80" x2="-90" y2="-80" stroke-width="12"/><line x1="-90" y1="-80" x2="0" y2="10" stroke-width="12"/><line x1="0" y1="10" x2="90" y2="-80" stroke-width="12"/><line x1="90" y1="-80" x2="90" y2="80" stroke-width="12"/><circle cx="-90" cy="80" r="14"/><circle cx="-90" cy="-80" r="14"/><circle cx="0" cy="10" r="14"/><circle cx="90" cy="-80" r="14"/><circle cx="90" cy="80" r="14"/></g><path transform="translate(62,28.175)" d="M 1.01 -8.02 H 3.64 L 5.47 -3.73 L 7.3 -8.02 H 9.93 V -0 H 7.98 V -5.87 L 6.13 -1.54 H 4.82 L 2.97 -5.87 V -0 H 1.01 Z" fill="#ffb547"/><path transform="translate(73.386,28.175)" d="M 7.37 -0.44 Q 6.8 -0.15 6.18 0.01 Q 5.56 0.16 4.89 0.16 Q 2.89 0.16 1.72 -0.96 Q 0.55 -2.08 0.55 -4 Q 0.55 -5.92 1.72 -7.04 Q 2.89 -8.16 4.89 -8.16 Q 5.56 -8.16 6.18 -8.01 Q 6.8 -7.86 7.37 -7.57 V -5.91 Q 6.79 -6.3 6.24 -6.48 Q 5.68 -6.67 5.06 -6.67 Q 3.95 -6.67 3.32 -5.96 Q 2.69 -5.25 2.69 -4 Q 2.69 -2.76 3.32 -2.05 Q 3.95 -1.34 5.06 -1.34 Q 5.68 -1.34 6.24 -1.53 Q 6.79 -1.71 7.37 -2.1 Z" fill="#ffb547"/><path transform="translate(81.899,28.175)" d="M 1.01 -8.02 H 3.08 V -1.56 H 6.71 V -0 H 1.01 Z" fill="#ffb547"/><path transform="translate(89.348,28.175)" d="M 0.92 -6.02 H 2.85 V -0 H 0.92 Z M 0.92 -8.36 H 2.85 V -6.79 H 0.92 Z" fill="#ffb547"/><path transform="translate(93.559,28.175)" d="M 3.02 -7.72 V -6.02 H 5.01 V -4.64 H 3.02 V -2.09 Q 3.02 -1.67 3.19 -1.52 Q 3.36 -1.38 3.85 -1.38 H 4.84 V -0 H 3.19 Q 2.05 -0 1.58 -0.48 Q 1.1 -0.95 1.1 -2.09 V -4.64 H 0.15 V -6.02 H 1.1 V -7.72 Z" fill="#ffb547"/><path transform="translate(99.257,28.175)" d="M 6.93 -3.02 V -2.48 H 2.43 Q 2.5 -1.8 2.92 -1.46 Q 3.34 -1.12 4.09 -1.12 Q 4.7 -1.12 5.34 -1.3 Q 5.97 -1.48 6.64 -1.85 V -0.37 Q 5.96 -0.11 5.28 0.02 Q 4.6 0.16 3.92 0.16 Q 2.28 0.16 1.38 -0.67 Q 0.47 -1.5 0.47 -3 Q 0.47 -4.47 1.36 -5.32 Q 2.25 -6.16 3.81 -6.16 Q 5.23 -6.16 6.08 -5.31 Q 6.93 -4.45 6.93 -3.02 Z M 4.95 -3.66 Q 4.95 -4.21 4.63 -4.55 Q 4.31 -4.88 3.8 -4.88 Q 3.24 -4.88 2.89 -4.57 Q 2.54 -4.25 2.45 -3.66 Z" fill="#ffb547"/><path transform="translate(62,43.855)" d="M 11.95 -0.87 Q 10.83 -0.32 9.62 -0.05 Q 8.41 0.23 7.12 0.23 Q 4.2 0.23 2.5 -1.4 Q 0.8 -3.03 0.8 -5.82 Q 0.8 -8.64 2.53 -10.26 Q 4.27 -11.88 7.28 -11.88 Q 8.45 -11.88 9.51 -11.66 Q 10.58 -11.44 11.52 -11.01 V -8.59 Q 10.55 -9.15 9.58 -9.42 Q 8.62 -9.7 7.65 -9.7 Q 5.85 -9.7 4.88 -8.69 Q 3.91 -7.69 3.91 -5.82 Q 3.91 -3.97 4.84 -2.96 Q 5.78 -1.95 7.51 -1.95 Q 7.98 -1.95 8.38 -2.01 Q 8.78 -2.07 9.1 -2.2 V -4.46 H 7.27 V -6.48 H 11.95 Z" fill="#ffb547"/><path transform="translate(75.933,43.855)" d="M 5.74 -6.49 Q 6.69 -6.49 7.1 -6.84 Q 7.51 -7.2 7.51 -8 Q 7.51 -8.8 7.1 -9.14 Q 6.69 -9.48 5.74 -9.48 H 4.48 V -6.49 Z M 4.48 -4.41 V -0 H 1.47 V -11.66 H 6.06 Q 8.37 -11.66 9.44 -10.89 Q 10.52 -10.12 10.52 -8.45 Q 10.52 -7.29 9.96 -6.55 Q 9.4 -5.8 8.27 -5.45 Q 8.89 -5.31 9.38 -4.82 Q 9.87 -4.32 10.37 -3.31 L 12 -0 H 8.8 L 7.38 -2.9 Q 6.95 -3.77 6.5 -4.09 Q 6.06 -4.41 5.33 -4.41 Z" fill="#ffb547"/><path transform="translate(89.053,43.855)" d="M 6.8 -9.7 Q 5.42 -9.7 4.66 -8.68 Q 3.91 -7.66 3.91 -5.82 Q 3.91 -3.98 4.66 -2.97 Q 5.42 -1.95 6.8 -1.95 Q 8.18 -1.95 8.94 -2.97 Q 9.7 -3.98 9.7 -5.82 Q 9.7 -7.66 8.94 -8.68 Q 8.18 -9.7 6.8 -9.7 Z M 6.8 -11.88 Q 9.61 -11.88 11.2 -10.27 Q 12.8 -8.66 12.8 -5.82 Q 12.8 -2.99 11.2 -1.38 Q 9.61 0.23 6.8 0.23 Q 3.99 0.23 2.39 -1.38 Q 0.8 -2.99 0.8 -5.82 Q 0.8 -8.66 2.39 -10.27 Q 3.99 -11.88 6.8 -11.88 Z" fill="#ffb547"/><path transform="translate(103.455,43.855)" d="M 1.47 -11.66 H 4.48 V -4.67 Q 4.48 -3.23 4.95 -2.61 Q 5.42 -1.98 6.49 -1.98 Q 7.57 -1.98 8.04 -2.61 Q 8.52 -3.23 8.52 -4.67 V -11.66 H 11.52 V -4.67 Q 11.52 -2.2 10.28 -0.98 Q 9.04 0.23 6.49 0.23 Q 3.95 0.23 2.71 -0.98 Q 1.47 -2.2 1.47 -4.67 Z" fill="#ffb547"/><path transform="translate(117.247,43.855)" d="M 1.47 -11.66 H 6.46 Q 8.69 -11.66 9.88 -10.68 Q 11.07 -9.69 11.07 -7.86 Q 11.07 -6.02 9.88 -5.04 Q 8.69 -4.05 6.46 -4.05 H 4.48 V -0 H 1.47 Z M 4.48 -9.48 V -6.23 H 6.14 Q 7.02 -6.23 7.49 -6.65 Q 7.97 -7.08 7.97 -7.86 Q 7.97 -8.64 7.49 -9.06 Q 7.02 -9.48 6.14 -9.48 Z" fill="#ffb547"/><path transform="translate(136.144,43.855)" d="M 1.47 -11.66 H 6.46 Q 8.69 -11.66 9.88 -10.68 Q 11.07 -9.69 11.07 -7.86 Q 11.07 -6.02 9.88 -5.04 Q 8.69 -4.05 6.46 -4.05 H 4.48 V -0 H 1.47 Z M 4.48 -9.48 V -6.23 H 6.14 Q 7.02 -6.23 7.49 -6.65 Q 7.97 -7.08 7.97 -7.86 Q 7.97 -8.64 7.49 -9.06 Q 7.02 -9.48 6.14 -9.48 Z" fill="#ffb547"/><path transform="translate(148.67,43.855)" d="M 5.74 -6.49 Q 6.69 -6.49 7.1 -6.84 Q 7.51 -7.2 7.51 -8 Q 7.51 -8.8 7.1 -9.14 Q 6.69 -9.48 5.74 -9.48 H 4.48 V -6.49 Z M 4.48 -4.41 V -0 H 1.47 V -11.66 H 6.06 Q 8.37 -11.66 9.44 -10.89 Q 10.52 -10.12 10.52 -8.45 Q 10.52 -7.29 9.96 -6.55 Q 9.4 -5.8 8.27 -5.45 Q 8.89 -5.31 9.38 -4.82 Q 9.87 -4.32 10.37 -3.31 L 12 -0 H 8.8 L 7.38 -2.9 Q 6.95 -3.77 6.5 -4.09 Q 6.06 -4.41 5.33 -4.41 Z" fill="#ffb547"/><path transform="translate(161.791,43.855)" d="M 1.47 -11.66 H 9.59 V -9.39 H 4.48 V -7.22 H 9.28 V -4.95 H 4.48 V -2.27 H 9.76 V -0 H 1.47 Z" fill="#ffb547"/><path transform="translate(173.52,43.855)" d="M 9.59 -11.3 V -8.83 Q 8.62 -9.26 7.71 -9.48 Q 6.8 -9.7 5.98 -9.7 Q 4.91 -9.7 4.39 -9.4 Q 3.88 -9.1 3.88 -8.48 Q 3.88 -8.01 4.22 -7.75 Q 4.57 -7.48 5.48 -7.3 L 6.77 -7.04 Q 8.71 -6.65 9.53 -5.85 Q 10.35 -5.05 10.35 -3.59 Q 10.35 -1.66 9.21 -0.71 Q 8.06 0.23 5.71 0.23 Q 4.6 0.23 3.48 0.02 Q 2.37 -0.2 1.25 -0.61 V -3.15 Q 2.37 -2.55 3.41 -2.25 Q 4.45 -1.95 5.42 -1.95 Q 6.41 -1.95 6.93 -2.28 Q 7.45 -2.61 7.45 -3.22 Q 7.45 -3.77 7.1 -4.06 Q 6.74 -4.36 5.68 -4.59 L 4.52 -4.85 Q 2.77 -5.23 1.96 -6.05 Q 1.15 -6.87 1.15 -8.26 Q 1.15 -10 2.27 -10.94 Q 3.4 -11.88 5.51 -11.88 Q 6.47 -11.88 7.48 -11.73 Q 8.5 -11.59 9.59 -11.3 Z" fill="#ffb547"/><path transform="translate(185.844,43.855)" d="M 1.47 -11.66 H 9.59 V -9.39 H 4.48 V -7.22 H 9.28 V -4.95 H 4.48 V -2.27 H 9.76 V -0 H 1.47 Z" fill="#ffb547"/><path transform="translate(197.573,43.855)" d="M 0.08 -11.66 H 10.83 V -9.39 H 6.96 V -0 H 3.95 V -9.39 H 0.08 Z" fill="#ffb547"/><g transform="translate(240,21)"><line x1="11" y1="3.5" x2="3" y2="18" stroke="#ffb547" stroke-width="2" stroke-linecap="round"/><line x1="3" y1="18" x2="19" y2="18" stroke="#ffb547" stroke-width="2" stroke-linecap="round"/><line x1="19" y1="18" x2="11" y2="3.5" stroke="#ffb547" stroke-width="2" stroke-linecap="round"/><circle cx="11" cy="3.5" r="2.4" fill="#ffb547" stroke="#ffb547" stroke-width="2" stroke-linecap="round" stroke-linejoin="round"/><circle cx="3" cy="18" r="2.4" fill="#ffb547" stroke="#ffb547" stroke-width="2" stroke-linecap="round" stroke-linejoin="round"/><circle cx="19" cy="18" r="2.4" fill="#ffb547" stroke="#ffb547" stroke-width="2" stroke-linecap="round" stroke-linejoin="round"/></g></svg>
