<svg xmlns="http://www.w3.org/2000/svg" viewBox="0 0 1085 217" role="img" aria-label="MCLite">
  <title>MCLite</title>
  <g transform="translate(-16,-16)">
    <g transform="translate(120,110)" fill="#ffb547" stroke="#ffb547" stroke-linecap="round">
    <line x1="-90" y1="80" x2="-90" y2="-80" stroke-width="12"/>
    <line x1="-90" y1="-80" x2="0" y2="10" stroke-width="12"/>
    <line x1="0" y1="10" x2="90" y2="-80" stroke-width="12"/>
    <line x1="90" y1="-80" x2="90" y2="80" stroke-width="12"/>
    <circle cx="-90" cy="80" r="14"/>
    <circle cx="-90" cy="-80" r="14"/>
    <circle cx="0" cy="10" r="14"/>
    <circle cx="90" cy="-80" r="14"/>
    <circle cx="90" cy="80" r="14"/>
  </g>
    <path transform="translate(328,183)" d="M 18.36 -145.8 H 66.21 L 99.41 -67.77 L 132.81 -145.8 H 180.57 V -0 H 145.02 V -106.64 L 111.43 -28.03 H 87.6 L 54 -106.64 V -0 H 18.36 Z M 333.01 -8.01 Q 322.66 -2.64 311.43 0.1 Q 300.2 2.83 287.99 2.83 Q 251.56 2.83 230.27 -17.53 Q 208.98 -37.89 208.98 -72.75 Q 208.98 -107.71 230.27 -128.08 Q 251.56 -148.44 287.99 -148.44 Q 300.2 -148.44 311.43 -145.7 Q 322.66 -142.97 333.01 -137.6 V -107.42 Q 322.56 -114.55 312.4 -117.87 Q 302.25 -121.19 291.02 -121.19 Q 270.9 -121.19 259.38 -108.3 Q 247.85 -95.41 247.85 -72.75 Q 247.85 -50.2 259.38 -37.3 Q 270.9 -24.41 291.02 -24.41 Q 302.25 -24.41 312.4 -27.73 Q 322.56 -31.05 333.01 -38.18 Z M 364.16 -145.8 H 401.76 V -28.42 H 467.77 V -0 H 364.16 Z M 490.04 -109.38 H 525 V -0 H 490.04 Z M 490.04 -151.95 H 525 V -123.44 H 490.04 Z M 596.78 -140.43 V -109.38 H 632.81 V -84.38 H 596.78 V -37.99 Q 596.78 -30.37 599.8 -27.69 Q 602.83 -25 611.82 -25 H 629.79 V -0 H 599.8 Q 579.1 -0 570.46 -8.64 Q 561.82 -17.29 561.82 -37.99 V -84.38 H 544.43 V -109.38 H 561.82 V -140.43 Z M 763.38 -54.98 V -45.02 H 681.64 Q 682.91 -32.71 690.53 -26.56 Q 698.14 -20.41 711.82 -20.41 Q 722.85 -20.41 734.42 -23.68 Q 746 -26.95 758.2 -33.59 V -6.64 Q 745.8 -1.95 733.4 0.44 Q 721 2.83 708.59 2.83 Q 678.91 2.83 662.45 -12.26 Q 646 -27.34 646 -54.59 Q 646 -81.35 662.16 -96.68 Q 678.32 -112.01 706.64 -112.01 Q 732.42 -112.01 747.9 -96.48 Q 763.38 -80.96 763.38 -54.98 Z M 727.44 -66.6 Q 727.44 -76.56 721.63 -82.67 Q 715.82 -88.77 706.45 -88.77 Q 696.29 -88.77 689.94 -83.06 Q 683.59 -77.34 682.03 -66.6 Z" fill="#11141b"/>
  </g>
</svg>
